<svg width="32" height="32" viewBox="0 0 32 32" fill="none" xmlns="http://www.w3.org/2000/svg">
<rect width="32" height="32" rx="8" fill="#4D8AAB"/>
<path fill-rule="evenodd" clip-rule="evenodd" d="M19.5 8H22C22.55 8 23 8.45 23 9C23 9.55 22.55 10 22 10H10C9.45 10 9 9.55 9 9C9 8.45 9.45 8 10 8H12.5L13.21 7.29C13.39 7.11 13.65 7 13.91 7H18.09C18.35 7 18.61 7.11 18.79 7.29L19.5 8ZM12 25C10.9 25 10 24.1 10 23V13C10 11.9 10.9 11 12 11H20C21.1 11 22 11.9 22 13V23C22 24.1 21.1 25 20 25H12Z" fill="#00B4D8"/>
</svg>
