<svg width="68" height="68" viewBox="0 0 68 68" fill="none" xmlns="http://www.w3.org/2000/svg">
<circle cx="34" cy="34" r="28" fill="#181B35"/>
<path d="M39.355 24.65L34 30.005L28.645 24.65C28.1157 24.1194 27.397 23.8213 26.6475 23.8213C25.8981 23.8213 25.1794 24.1194 24.65 24.65C23.545 25.755 23.545 27.54 24.65 28.645L30.005 34L24.65 39.355C23.545 40.46 23.545 42.245 24.65 43.35C25.755 44.455 27.54 44.455 28.645 43.35L34 37.995L39.355 43.35C40.46 44.455 42.245 44.455 43.35 43.35C44.455 42.245 44.455 40.46 43.35 39.355L37.995 34L43.35 28.645C44.455 27.54 44.455 25.755 43.35 24.65C42.245 23.5733 40.4317 23.5733 39.355 24.65Z" fill="#313450"/>
</svg>
