<svg width="77" height="60" viewBox="0 0 77 60" fill="none" xmlns="http://www.w3.org/2000/svg">
<rect width="6" height="60" rx="3" fill="#00B4D8"/>
<rect x="17" width="60" height="60" rx="8" fill="#00B4D8"/>
<path fill-rule="evenodd" clip-rule="evenodd" d="M29.5 7.5H64.5C67.25 7.5 69.5 9.75 69.5 12.5V47.5C69.5 50.25 67.25 52.5 64.5 52.5H29.5C26.75 52.5 24.5 50.25 24.5 47.5V12.5C24.5 9.75 26.75 7.5 29.5 7.5ZM40.25 40.725C41.225 41.7 42.8 41.7 43.775 40.725L62.725 21.75C63.7 20.775 63.7 19.2 62.725 18.225C61.75 17.25 60.175 17.25 59.2 18.225L42 35.425L34.8 28.225C33.825 27.25 32.25 27.25 31.275 28.225C30.8069 28.6921 30.5438 29.3262 30.5438 29.9875C30.5438 30.6488 30.8069 31.2829 31.275 31.75L40.25 40.725Z" fill="#6CDEF4"/>
</svg>
