<svg width="77" height="60" viewBox="0 0 77 60" fill="none" xmlns="http://www.w3.org/2000/svg">
<rect x="17" width="60" height="60" rx="8" fill="#00B4D8"/>
<path d="M41.9944 48.3188V35.8188H51.9944V48.3188C51.9944 49.6938 53.1194 50.8188 54.4944 50.8188H61.9944C63.3694 50.8188 64.4944 49.6938 64.4944 48.3188V30.8188H68.7444C69.8944 30.8188 70.4444 29.3938 69.5694 28.6438L48.6694 9.81877C47.7194 8.96877 46.2694 8.96877 45.3194 9.81877L24.4194 28.6438C23.5694 29.3938 24.0944 30.8188 25.2444 30.8188H29.4944V48.3188C29.4944 49.6938 30.6194 50.8188 31.9944 50.8188H39.4944C40.8694 50.8188 41.9944 49.6938 41.9944 48.3188Z" fill="#6CDEF4"/>
<rect width="6" height="60" rx="3" fill="#00B4D8"/>
</svg>
