<svg width="50" height="50" viewBox="0 0 50 50" fill="none" xmlns="http://www.w3.org/2000/svg">
<path fill-rule="evenodd" clip-rule="evenodd" d="M45.8333 8.33332H29.1667L26.2292 5.39582C25.4375 4.60416 24.375 4.16666 23.2708 4.16666H12.5C10.2083 4.16666 8.35417 6.04166 8.35417 8.33332L8.33333 33.3333C8.33333 35.625 10.2083 37.5 12.5 37.5H45.8333C48.125 37.5 50 35.625 50 33.3333V12.5C50 10.2083 48.125 8.33332 45.8333 8.33332ZM2.08333 12.5C0.9375 12.5 0 13.4375 0 14.5833V22.9167H0.0208333L0 41.6667C0 43.9583 1.875 45.8333 4.16667 45.8333H39.5833C40.7292 45.8333 41.6667 44.8958 41.6667 43.75C41.6667 42.6042 40.7292 41.6667 39.5833 41.6667H6.25C5.10417 41.6667 4.16667 40.7292 4.16667 39.5833V14.5833C4.16667 13.4375 3.22917 12.5 2.08333 12.5ZM23.1458 19.8333L15.8333 29.5833C15.3125 30.2708 15.8125 31.25 16.6667 31.2292H41.6458C42.5 31.2292 43 30.2292 42.4583 29.5417L37.2708 22.875C36.8542 22.3542 36.0625 22.3333 35.6458 22.8542L31.2708 28.125L24.8125 19.8125C24.375 19.2708 23.5625 19.2917 23.1458 19.8333Z" fill="#00B4D8"/>
</svg>
