<svg width="32" height="32" viewBox="0 0 32 32" fill="none" xmlns="http://www.w3.org/2000/svg">
<rect width="32" height="32" rx="8" fill="#4D8AAB"/>
<path d="M16.4732 7.2469C14.4632 5.2369 11.4532 4.8269 9.03318 6.0069L12.6632 9.6369C13.0532 10.0269 13.0532 10.6569 12.6632 11.0469L11.0732 12.6369C10.6832 13.0369 10.0532 13.0369 9.66318 12.6369L6.03318 9.0069C4.86318 11.4369 5.27318 14.4269 7.28318 16.4369C9.14318 18.2969 11.8632 18.7869 14.1732 17.9169L22.1332 25.8769C23.1632 26.9069 24.8232 26.9069 25.8432 25.8769C26.8732 24.8469 26.8732 23.1869 25.8432 22.1669L17.9232 14.2369C18.8432 11.8969 18.3632 9.1369 16.4732 7.2469Z" fill="#00B4D8"/>
</svg>
