<svg width="84" height="84" viewBox="0 0 84 84" fill="none" xmlns="http://www.w3.org/2000/svg">
<g clip-path="url(#clip0_454_433)">
<path d="M80.2458 0H3.75419C1.68081 0 0 1.68081 0 3.75419V80.2458C0 82.3192 1.68081 84 3.75419 84H80.2458C82.3192 84 84 82.3192 84 80.2458V3.75419C84 1.68081 82.3192 0 80.2458 0Z" fill="#00B4D8"/>
<path d="M24.8715 52.5587C35.2384 52.5587 43.6425 44.1546 43.6425 33.7877C43.6425 23.4208 35.2384 15.0168 24.8715 15.0168C14.5046 15.0168 6.10059 23.4208 6.10059 33.7877C6.10059 44.1546 14.5046 52.5587 24.8715 52.5587Z" fill="#00B4D8"/>
<path d="M28.8603 40.8268C34.6917 40.8268 39.4189 36.0995 39.4189 30.2681C39.4189 24.4367 34.6917 19.7095 28.8603 19.7095C23.0289 19.7095 18.3016 24.4367 18.3016 30.2681C18.3016 36.0995 23.0289 40.8268 28.8603 40.8268Z" fill="#00B4D8"/>
<path d="M63.8212 19.7095H27.6871V40.8268H63.8212V19.7095Z" fill="#00B4D8"/>
<path d="M35.1504 11.3047L41.2822 35.6099L48.2583 11.3047H63.7656V76H52.3018V56.8491L52.835 26.5898L44.3481 54.6719H38.1719L30.5737 27.7896L31.1069 56.8491V76H19.6431V11.3047H35.1504Z" fill="white"/>
</g>
<defs>
<clipPath id="clip0_454_433">
<rect width="84" height="84" fill="white"/>
</clipPath>
</defs>
</svg>
