<svg width="77" height="62" viewBox="0 0 77 62" fill="none" xmlns="http://www.w3.org/2000/svg">
<rect y="2" width="6" height="60" rx="3" fill="#CAF0F8"/>
<rect x="17" y="2" width="60" height="60" rx="8" fill="#CAF0F8"/>
<path d="M67.3365 30.7296H63.8365V21.3962C63.8365 18.8296 61.7365 16.7296 59.1698 16.7296H49.8365V13.2296C49.8365 10.0096 47.2231 7.39624 44.0031 7.39624C40.7831 7.39624 38.1698 10.0096 38.1698 13.2296V16.7296H28.8365C26.2698 16.7296 24.1931 18.8296 24.1931 21.3962V30.2629H27.6698C31.1465 30.2629 33.9698 33.0862 33.9698 36.5629C33.9698 40.0396 31.1465 42.8629 27.6698 42.8629H24.1698V51.7296C24.1698 54.2962 26.2698 56.3962 28.8365 56.3962H37.7031V52.8962C37.7031 49.4196 40.5265 46.5962 44.0031 46.5962C47.4798 46.5962 50.3031 49.4196 50.3031 52.8962V56.3962H59.1698C61.7365 56.3962 63.8365 54.2962 63.8365 51.7296V42.3962H67.3365C70.5565 42.3962 73.1698 39.7829 73.1698 36.5629C73.1698 33.3429 70.5565 30.7296 67.3365 30.7296Z" fill="#6CDEF4"/>
</svg>
