<svg width="31" height="30" viewBox="0 0 31 30" fill="none" xmlns="http://www.w3.org/2000/svg">
<path d="M12.1742 4.05644L12.1742 12.3644L3.55106 12.3644C2.69768 12.3634 1.87898 12.6896 1.27554 13.271C0.672115 13.8524 0.333537 14.6412 0.334497 15.4633C0.334497 17.1777 1.77168 18.5623 3.55106 18.5623L12.1742 18.5623L12.1742 26.8703C12.1742 28.5846 13.6114 29.9692 15.3907 29.9692C17.1701 29.9692 18.6073 28.5846 18.6073 26.8703L18.6073 18.5623L27.2304 18.5623C29.0098 18.5623 30.447 17.1777 30.447 15.4633C30.447 13.749 29.0098 12.3644 27.2304 12.3644L18.6073 12.3644L18.6073 4.05644C18.6073 2.34211 17.1701 0.957458 15.3907 0.957458C13.6342 0.979435 12.1742 2.38607 12.1742 4.05644Z" fill="#798FFE"/>
</svg>
