<svg width="38" height="38" viewBox="0 0 38 38" fill="none" xmlns="http://www.w3.org/2000/svg">
<g id="icon/action/search_24px">
<path id="icon/action/search_24px_2" fill-rule="evenodd" clip-rule="evenodd" d="M24.0454 22.9133H25.2962L32.0096 29.6583C32.6587 30.3075 32.6587 31.3683 32.0096 32.0175C31.3604 32.6666 30.2996 32.6666 29.6504 32.0175L22.9212 25.2883V24.0375L22.4937 23.5941C20.2771 25.4941 17.2529 26.4758 14.0387 25.9375C9.63706 25.1933 6.12206 21.52 5.58373 17.0866C4.76039 10.3891 10.3971 4.75246 17.0946 5.57579C21.5279 6.11413 25.2012 9.62913 25.9454 14.0308C26.4837 17.245 25.5021 20.2691 23.6021 22.4858L24.0454 22.9133ZM8.67123 15.7883C8.67123 19.7308 11.8537 22.9133 15.7962 22.9133C19.7387 22.9133 22.9212 19.7308 22.9212 15.7883C22.9212 11.8458 19.7387 8.66329 15.7962 8.66329C11.8537 8.66329 8.67123 11.8458 8.67123 15.7883Z" fill="white" fill-opacity="0.51"/>
</g>
</svg>
