<svg width="58" height="58" viewBox="0 0 58 58" fill="none" xmlns="http://www.w3.org/2000/svg">
<path fill-rule="evenodd" clip-rule="evenodd" d="M47.1302 29C47.1302 29.8216 47.0577 30.595 46.9611 31.3683L52.0602 35.3558C52.5194 35.7183 52.6402 36.3708 52.3502 36.9025L47.5169 45.2641C47.2269 45.7958 46.5986 46.0133 46.0427 45.7958L40.0252 43.3791C38.7686 44.3216 37.4152 45.1433 35.9411 45.7475L35.0227 52.1516C34.9502 52.7316 34.4427 53.1666 33.8386 53.1666H24.1719C23.5677 53.1666 23.0602 52.7316 22.9877 52.1516L22.0694 45.7475C20.5952 45.1433 19.2419 44.3458 17.9852 43.3791L11.9677 45.7958C11.4361 45.9892 10.7836 45.7958 10.4936 45.2641L5.66023 36.9025C5.37023 36.3708 5.49106 35.7183 5.95023 35.3558L11.0494 31.3683C10.9527 30.595 10.8802 29.7975 10.8802 29C10.8802 28.2025 10.9527 27.405 11.0494 26.6316L5.95023 22.6441C5.49106 22.2816 5.34606 21.6291 5.66023 21.0975L10.4936 12.7358C10.7836 12.2041 11.4119 11.9866 11.9677 12.2041L17.9852 14.6208C19.2419 13.6783 20.5952 12.8566 22.0694 12.2525L22.9877 5.84831C23.0602 5.26831 23.5677 4.83331 24.1719 4.83331H33.8386C34.4427 4.83331 34.9502 5.26831 35.0227 5.84831L35.9411 12.2525C37.4152 12.8566 38.7686 13.6541 40.0252 14.6208L46.0427 12.2041C46.5744 12.0108 47.2269 12.2041 47.5169 12.7358L52.3502 21.0975C52.6402 21.6291 52.5194 22.2816 52.0602 22.6441L46.9611 26.6316C47.0577 27.405 47.1302 28.1783 47.1302 29ZM20.5469 29C20.5469 33.6641 24.3411 37.4583 29.0052 37.4583C33.6694 37.4583 37.4636 33.6641 37.4636 29C37.4636 24.3358 33.6694 20.5416 29.0052 20.5416C24.3411 20.5416 20.5469 24.3358 20.5469 29Z" fill="#4D8AAB"/>
</svg>
