<svg width="69" height="70" viewBox="0 0 69 70" fill="none" xmlns="http://www.w3.org/2000/svg">
<path fill-rule="evenodd" clip-rule="evenodd" d="M14.375 11.6667H54.625C57.8162 11.6667 60.375 14.2917 60.375 17.5V52.5C60.375 55.7084 57.7875 58.3334 54.625 58.3334H46C44.4188 58.3334 43.125 57.0209 43.125 55.4167C43.125 53.8125 44.4188 52.5 46 52.5H54.625V23.3334H14.375V52.5H23C24.5813 52.5 25.875 53.8125 25.875 55.4167C25.875 57.0209 24.5813 58.3334 23 58.3334H14.375C11.2125 58.3334 8.625 55.7084 8.625 52.5V17.5C8.625 14.2917 11.1837 11.6667 14.375 11.6667ZM25.4725 38.325L33.4937 30.1875C34.04 29.6334 34.96 29.6334 35.5063 30.2167L43.5275 38.3542C44.4475 39.2584 43.815 40.8334 42.5213 40.8334H37.375V55.4167C37.375 57.0209 36.0812 58.3334 34.5 58.3334C32.9188 58.3334 31.625 57.0209 31.625 55.4167V40.8334H26.4788C25.185 40.8334 24.5525 39.2584 25.4725 38.325Z" fill="#4D8AAB"/>
</svg>
