<svg width="49" height="49" viewBox="0 0 49 49" fill="none" xmlns="http://www.w3.org/2000/svg">
<path fill-rule="evenodd" clip-rule="evenodd" d="M36.3333 12.6667C36.3333 19.2046 31.0378 24.5 24.4999 24.5C17.962 24.5 12.6666 19.2046 12.6666 12.6667C12.6666 6.12876 17.962 0.833344 24.4999 0.833344C31.0378 0.833344 36.3333 6.12876 36.3333 12.6667ZM30.4166 12.6667C30.4166 9.41251 27.7541 6.75001 24.4999 6.75001C21.2458 6.75001 18.5833 9.41251 18.5833 12.6667C18.5833 15.9208 21.2458 18.5833 24.4999 18.5833C27.7541 18.5833 30.4166 15.9208 30.4166 12.6667ZM24.4999 27.4583C16.6012 27.4583 0.833252 31.4225 0.833252 39.2917V45.2083C0.833252 46.8354 2.1645 48.1667 3.79159 48.1667H45.2083C46.8353 48.1667 48.1666 46.8354 48.1666 45.2083V39.2917C48.1666 31.4225 32.3987 27.4583 24.4999 27.4583ZM6.74992 39.3213V42.25H42.2499V39.2917C41.6582 37.1913 32.4874 33.375 24.4999 33.375C16.5124 33.375 7.34158 37.1913 6.74992 39.3213Z" fill="#111224"/>
</svg>
