<svg width="71" height="71" viewBox="0 0 71 71" fill="none" xmlns="http://www.w3.org/2000/svg">
<rect width="71" height="71" rx="8" fill="#181B35"/>
<path fill-rule="evenodd" clip-rule="evenodd" d="M47.333 23.6666C47.333 30.2046 42.0376 35.5 35.4997 35.5C28.9618 35.5 23.6663 30.2046 23.6663 23.6666C23.6663 17.1287 28.9618 11.8333 35.4997 11.8333C42.0376 11.8333 47.333 17.1287 47.333 23.6666ZM41.4163 23.6666C41.4163 20.4125 38.7538 17.75 35.4997 17.75C32.2455 17.75 29.583 20.4125 29.583 23.6666C29.583 26.9208 32.2455 29.5833 35.4997 29.5833C38.7538 29.5833 41.4163 26.9208 41.4163 23.6666ZM35.4997 38.4583C27.6009 38.4583 11.833 42.4225 11.833 50.2916V56.2083C11.833 57.8354 13.1643 59.1666 14.7913 59.1666H56.208C57.8351 59.1666 59.1663 57.8354 59.1663 56.2083V50.2916C59.1663 42.4225 43.3984 38.4583 35.4997 38.4583ZM17.7497 50.3212V53.25H53.2497V50.2916C52.658 48.1912 43.4872 44.375 35.4997 44.375C27.5122 44.375 18.3413 48.1912 17.7497 50.3212Z" fill="#111224"/>
</svg>
