<svg width="50" height="50" viewBox="0 0 50 50" fill="none" xmlns="http://www.w3.org/2000/svg">
<path d="M36.6663 13.1666C35.139 11.6279 33.3211 10.4082 31.3184 9.57846C29.3155 8.74869 27.1676 8.32544 24.9997 8.3333C22.1015 8.33613 19.2548 9.10038 16.7449 10.5495C14.235 11.9986 12.1498 14.0818 10.6983 16.5903C9.24676 19.0988 8.4798 21.9448 8.47417 24.8429C8.46857 27.7412 9.22453 30.59 10.6663 33.1042L8.33301 41.6666L17.083 39.375C19.4992 40.7192 22.214 41.4356 24.9788 41.4583C29.374 41.4585 33.5913 39.7225 36.7126 36.6283C39.834 33.5344 41.607 29.3325 41.6455 24.9375C41.6309 22.7444 41.1834 20.5757 40.3291 18.5558C39.4747 16.5359 38.2299 14.7045 36.6663 13.1666ZM24.9997 38.6042C22.5365 38.6058 20.1184 37.9437 17.9997 36.6875L17.4997 36.375L12.3122 37.75L13.6872 32.6875L13.3538 32.1667C11.5814 29.3056 10.92 25.8937 11.4947 22.5775C12.0695 19.2613 13.8405 16.2711 16.4724 14.1734C19.1043 12.0756 22.414 11.0159 25.7749 11.1952C29.1357 11.3744 32.3143 12.78 34.708 15.1458C37.3247 17.7045 38.8226 21.1948 38.8747 24.8542C38.8418 28.5123 37.3653 32.0094 34.7668 34.5846C32.1684 37.1596 28.658 38.6044 24.9997 38.6042ZM32.5205 28.3125C32.1038 28.1042 30.083 27.1042 29.708 26.9792C29.333 26.8542 29.0413 26.7708 28.7705 27.1875C28.363 27.746 27.9247 28.2814 27.458 28.7917C27.2288 29.0833 26.9788 29.1042 26.5622 28.7917C24.1865 27.8529 22.2074 26.1237 20.958 23.8958C20.5205 23.1667 21.3747 23.2083 22.1663 21.6458C22.2249 21.5331 22.2553 21.4081 22.2553 21.2812C22.2553 21.1544 22.2249 21.0294 22.1663 20.9167C22.1663 20.7083 21.2288 18.6666 20.8955 17.8541C20.5622 17.0416 20.2288 17.1666 19.958 17.1458H19.1455C18.935 17.149 18.7276 17.1972 18.5372 17.287C18.3468 17.3768 18.1777 17.5062 18.0413 17.6666C17.5739 18.1212 17.2093 18.6706 16.9721 19.278C16.7349 19.8853 16.6307 20.5364 16.6663 21.1875C16.797 22.746 17.3839 24.2314 18.3538 25.4583C20.1293 28.1162 22.5624 30.2694 25.4163 31.7083C26.9132 32.5821 28.6528 32.9475 30.3747 32.75C30.948 32.6362 31.4911 32.4031 31.9684 32.0656C32.4459 31.7283 32.847 31.2942 33.1455 30.7917C33.4222 30.1783 33.5093 29.4964 33.3955 28.8333C33.208 28.625 32.9372 28.5208 32.5205 28.3125Z" fill="white"/>
</svg>
