<svg width="31" height="31" viewBox="0 0 31 31" fill="none" xmlns="http://www.w3.org/2000/svg">
<g id="icon/action/calendar_today_24px">
<path id="icon/action/calendar_today_24px_2" fill-rule="evenodd" clip-rule="evenodd" d="M24.5418 3.875H25.8335C27.2543 3.875 28.4168 5.0375 28.4168 6.45834V27.125C28.4168 28.5458 27.2543 29.7083 25.8335 29.7083H5.16683C3.746 29.7083 2.5835 28.5458 2.5835 27.125V6.45834C2.5835 5.0375 3.746 3.875 5.16683 3.875H6.4585V2.58334C6.4585 1.87292 7.03975 1.29167 7.75016 1.29167C8.46058 1.29167 9.04183 1.87292 9.04183 2.58334V3.875H21.9585V2.58334C21.9585 1.87292 22.5397 1.29167 23.2502 1.29167C23.9606 1.29167 24.5418 1.87292 24.5418 2.58334V3.875ZM6.4585 27.125H24.5418C25.2522 27.125 25.8335 26.5438 25.8335 25.8333V10.3333H5.16683V25.8333C5.16683 26.5438 5.74808 27.125 6.4585 27.125Z" fill="#8F7DFA"/>
</g>
</svg>
