<svg width="24" height="24" viewBox="0 0 24 24" fill="none" xmlns="http://www.w3.org/2000/svg">
<g id="icon/action/build_24px">
<path id="icon/action/build_24px_2" d="M12.4735 3.24689C10.4635 1.23689 7.45355 0.826891 5.03355 2.00689L8.66355 5.63689C9.05355 6.02689 9.05355 6.65689 8.66355 7.04689L7.07355 8.63689C6.68355 9.03689 6.05355 9.03689 5.66355 8.63689L2.03355 5.00689C0.863548 7.43689 1.27355 10.4269 3.28355 12.4369C5.14355 14.2969 7.86355 14.7869 10.1735 13.9169L18.1335 21.8769C19.1635 22.9069 20.8235 22.9069 21.8435 21.8769C22.8735 20.8469 22.8735 19.1869 21.8435 18.1669L13.9235 10.2369C14.8435 7.89689 14.3635 5.13689 12.4735 3.24689Z" fill="#8F7DFA"/>
</g>
</svg>
