<svg width="84" height="84" viewBox="0 0 84 84" fill="none" xmlns="http://www.w3.org/2000/svg">
<g clip-path="url(#clip0_22_161)">
<path d="M80.2458 0H3.75419C1.68081 0 0 1.68081 0 3.75419V80.2458C0 82.3192 1.68081 84 3.75419 84H80.2458C82.3192 84 84 82.3192 84 80.2458V3.75419C84 1.68081 82.3192 0 80.2458 0Z" fill="#8F7DFA"/>
<path d="M70.3911 72.2681C70.3911 75.378 67.8697 77.8994 64.7598 77.8994C61.6499 77.8994 59.1285 75.378 59.1285 72.2681V59.1285C59.1285 56.0186 61.6499 53.4972 64.7598 53.4972C67.8697 53.4972 70.3911 56.0186 70.3911 59.1285V72.2681Z" fill="white"/>
<path d="M20.1788 72.2682C20.1788 75.3781 17.6575 77.8995 14.5475 77.8995C11.4374 77.8995 8.9162 75.3781 8.9162 72.2682V45.5196C8.9162 42.4095 11.4374 39.8883 14.5475 39.8883C17.6575 39.8883 20.1788 42.4095 20.1788 45.5196V72.2682Z" fill="white"/>
<path d="M32.6145 19.7095C29.8932 19.7095 27.6872 17.5034 27.6872 14.7821C27.6872 12.0608 29.8932 9.85474 32.6145 9.85474H65.4637C68.185 9.85474 70.3911 12.0608 70.3911 14.7821C70.3911 17.5034 68.185 19.7095 65.4637 19.7095H32.6145Z" fill="white"/>
<path d="M24.8715 52.5587C35.2384 52.5587 43.6425 44.1546 43.6425 33.7877C43.6425 23.4208 35.2384 15.0168 24.8715 15.0168C14.5046 15.0168 6.10056 23.4208 6.10056 33.7877C6.10056 44.1546 14.5046 52.5587 24.8715 52.5587Z" fill="#8F7DFA"/>
<path d="M28.8603 44.8157C37.1539 44.8157 43.8771 38.0924 43.8771 29.7989C43.8771 21.5054 37.1539 14.7821 28.8603 14.7821C20.5668 14.7821 13.8436 21.5054 13.8436 29.7989C13.8436 38.0924 20.5668 44.8157 28.8603 44.8157Z" fill="#D9D9D9" stroke="white" stroke-width="10"/>
<path d="M28.8603 40.8268C34.6917 40.8268 39.419 36.0995 39.419 30.2682C39.419 24.4368 34.6917 19.7095 28.8603 19.7095C23.0289 19.7095 18.3017 24.4368 18.3017 30.2682C18.3017 36.0995 23.0289 40.8268 28.8603 40.8268Z" fill="#8F7DFA"/>
<path d="M30.2682 49.7431C27.5468 49.7431 25.3408 47.537 25.3408 44.8157C25.3408 42.0944 27.5468 39.8883 30.2682 39.8883H50.9162C53.6375 39.8883 55.8436 42.0944 55.8436 44.8157C55.8436 47.537 53.6375 49.7431 50.9162 49.7431H30.2682Z" fill="white"/>
<path d="M63.8213 19.7095H27.6872V40.8268H63.8213V19.7095Z" fill="#8F7DFA"/>
<path d="M64.9944 50.6816C67.9748 50.6816 70.391 48.2654 70.391 45.2849C70.391 42.3045 67.9748 39.8883 64.9944 39.8883C62.0139 39.8883 59.5977 42.3045 59.5977 45.2849C59.5977 48.2654 62.0139 50.6816 64.9944 50.6816Z" fill="white"/>
</g>
<defs>
<clipPath id="clip0_22_161">
<rect width="84" height="84" fill="white"/>
</clipPath>
</defs>
</svg>
