<svg width="50" height="50" viewBox="0 0 50 50" fill="none" xmlns="http://www.w3.org/2000/svg">
<g clip-path="url(#clip0_22_172)">
<path d="M47.7654 0H2.23464C1.00048 0 0 1.00048 0 2.23464V47.7654C0 48.9995 1.00048 50 2.23464 50H47.7654C48.9995 50 50 48.9995 50 47.7654V2.23464C50 1.00048 48.9995 0 47.7654 0Z" fill="#8F7DFA"/>
<path d="M41.8994 43.0167C41.8994 44.8678 40.3986 46.3686 38.5475 46.3686C36.6964 46.3686 35.1955 44.8678 35.1955 43.0167V35.1955C35.1955 33.3443 36.6964 31.8435 38.5475 31.8435C40.3986 31.8435 41.8994 33.3443 41.8994 35.1955V43.0167Z" fill="white"/>
<path d="M12.0112 43.0167C12.0112 44.8678 10.5104 46.3686 8.65921 46.3686C6.80798 46.3686 5.30725 44.8678 5.30725 43.0167V27.0949C5.30725 25.2436 6.80798 23.7429 8.65921 23.7429C10.5104 23.7429 12.0112 25.2436 12.0112 27.0949V43.0167Z" fill="white"/>
<path d="M19 12C17.3431 12 16 10.6569 16 9C16 7.34314 17.3431 6 19 6H39C40.6569 6 42 7.34314 42 9C42 10.6569 40.6569 12 39 12H19Z" fill="white"/>
<path d="M14.8045 31.2848C20.9753 31.2848 25.9777 26.2824 25.9777 20.1117C25.9777 13.9409 20.9753 8.93848 14.8045 8.93848C8.63369 8.93848 3.63129 13.9409 3.63129 20.1117C3.63129 26.2824 8.63369 31.2848 14.8045 31.2848Z" fill="#8F7DFA"/>
<path d="M17 27C21.9706 27 26 22.9706 26 18C26 13.0294 21.9706 9 17 9C12.0294 9 8 13.0294 8 18C8 22.9706 12.0294 27 17 27Z" fill="#D9D9D9" stroke="white" stroke-width="6"/>
<path d="M17.0692 30C15.3741 30 14 28.6569 14 27C14 25.3431 15.3741 24 17.0692 24H29.9308C31.6259 24 33 25.3431 33 27C33 28.6569 31.6259 30 29.9308 30H17.0692Z" fill="white"/>
<path d="M41 12H16V24H41V12Z" fill="#8F7DFA"/>
<path d="M38.6871 30.1675C40.4612 30.1675 41.8994 28.7293 41.8994 26.9552C41.8994 25.1811 40.4612 23.7429 38.6871 23.7429C36.913 23.7429 35.4749 25.1811 35.4749 26.9552C35.4749 28.7293 36.913 30.1675 38.6871 30.1675Z" fill="white"/>
<path d="M17 24C20.3137 24 23 21.3137 23 18C23 14.6863 20.3137 12 17 12C13.6863 12 11 14.6863 11 18C11 21.3137 13.6863 24 17 24Z" fill="#8F7DFA"/>
</g>
<defs>
<clipPath id="clip0_22_172">
<rect width="50" height="50" fill="white"/>
</clipPath>
</defs>
</svg>
