<svg width="58" height="58" viewBox="0 0 58 58" fill="none" xmlns="http://www.w3.org/2000/svg">
<g id="icon/action/settings_24px">
<path id="icon/action/settings_24px_2" fill-rule="evenodd" clip-rule="evenodd" d="M47.1303 29C47.1303 29.8217 47.0578 30.595 46.9612 31.3683L52.0603 35.3558C52.5195 35.7183 52.6403 36.3708 52.3503 36.9025L47.517 45.2642C47.227 45.7958 46.5987 46.0133 46.0428 45.7958L40.0253 43.3792C38.7687 44.3217 37.4153 45.1433 35.9412 45.7475L35.0228 52.1517C34.9503 52.7317 34.4428 53.1667 33.8387 53.1667H24.172C23.5678 53.1667 23.0603 52.7317 22.9878 52.1517L22.0695 45.7475C20.5953 45.1433 19.242 44.3458 17.9853 43.3792L11.9678 45.7958C11.4362 45.9892 10.7837 45.7958 10.4937 45.2642L5.66035 36.9025C5.37035 36.3708 5.49118 35.7183 5.95035 35.3558L11.0495 31.3683C10.9528 30.595 10.8803 29.7975 10.8803 29C10.8803 28.2025 10.9528 27.405 11.0495 26.6317L5.95035 22.6442C5.49118 22.2817 5.34618 21.6292 5.66035 21.0975L10.4937 12.7358C10.7837 12.2042 11.412 11.9867 11.9678 12.2042L17.9853 14.6208C19.242 13.6783 20.5953 12.8567 22.0695 12.2525L22.9878 5.84834C23.0603 5.26834 23.5678 4.83334 24.172 4.83334H33.8387C34.4428 4.83334 34.9503 5.26834 35.0228 5.84834L35.9412 12.2525C37.4153 12.8567 38.7687 13.6542 40.0253 14.6208L46.0428 12.2042C46.5745 12.0108 47.227 12.2042 47.517 12.7358L52.3503 21.0975C52.6403 21.6292 52.5195 22.2817 52.0603 22.6442L46.9612 26.6317C47.0578 27.405 47.1303 28.1783 47.1303 29ZM20.547 29C20.547 33.6642 24.3412 37.4583 29.0053 37.4583C33.6695 37.4583 37.4637 33.6642 37.4637 29C37.4637 24.3358 33.6695 20.5417 29.0053 20.5417C24.3412 20.5417 20.547 24.3358 20.547 29Z" fill="#313450"/>
</g>
</svg>
