<svg width="69" height="70" viewBox="0 0 69 70" fill="none" xmlns="http://www.w3.org/2000/svg">
<g id="icon/action/open_in_browser_24px">
<path id="icon/action/open_in_browser_24px_2" fill-rule="evenodd" clip-rule="evenodd" d="M14.375 11.6667H54.625C57.8162 11.6667 60.375 14.2917 60.375 17.5V52.5C60.375 55.7083 57.7875 58.3333 54.625 58.3333H46C44.4188 58.3333 43.125 57.0208 43.125 55.4167C43.125 53.8125 44.4188 52.5 46 52.5H54.625V23.3333H14.375V52.5H23C24.5813 52.5 25.875 53.8125 25.875 55.4167C25.875 57.0208 24.5813 58.3333 23 58.3333H14.375C11.2125 58.3333 8.625 55.7083 8.625 52.5V17.5C8.625 14.2917 11.1837 11.6667 14.375 11.6667ZM25.4725 38.325L33.4937 30.1875C34.04 29.6333 34.96 29.6333 35.5063 30.2167L43.5275 38.3542C44.4475 39.2583 43.815 40.8333 42.5213 40.8333H37.375V55.4167C37.375 57.0208 36.0812 58.3333 34.5 58.3333C32.9188 58.3333 31.625 57.0208 31.625 55.4167V40.8333H26.4788C25.185 40.8333 24.5525 39.2583 25.4725 38.325Z" fill="#313450"/>
</g>
</svg>
